<svg xmlns="http://www.w3.org/2000/svg" id="Layer_1" viewBox="0 0 653.7 653.7"><defs><style>.cls-2{fill:#fdfdfd}.cls-3{fill:#d3213d}.cls-4{fill:#020202}</style></defs><circle cx="326.85" cy="326.85" r="319.35" style="fill:#fdfdfd;stroke:#d3213d;stroke-miterlimit:10;stroke-width:15px"/><path d="M326.41 501.02c-96.5 0-174.85-78.5-174.82-175.17.02-96.9 78.66-175.1 176.28-174.74 96.74.35 175.42 80.37 173.72 178.13-1.65 94.75-79.49 172.06-175.18 171.78Zm4.25-6.72c96.31-2.75 170.16-84.77 163.79-179.69-5.99-89.23-83.47-162.46-178.9-156.39-90.13 5.73-162.82 83.95-156.8 178.76 5.6 88.06 79.89 159.14 171.91 157.32ZM139.28 285.73c-.25 11.01-2.19 20.55-3.49 30.17-.38 2.76-.81 5.52-1.28 8.26-.74 4.39-2.56 6.01-7.01 5.5-7.05-.82-14.07-1.95-21.1-2.99-20.37-2.99-40.74-6-61.11-9.01-2.4-.35-4.81-.66-7.19-1.14-3.13-.64-5.12-2.93-4.65-5.98 2.11-13.49 2.9-27.23 6.89-40.36 4.8-15.79 14.43-27.43 31.27-30.53 19.43-3.58 37.85-.33 53.71 12.22 8.3 6.57 12.11 15.87 13.36 26.23.36 2.94.74 5.9.58 7.63Zm-16.8 4.68c.21-12.61-5.35-21.09-16.38-25.93-8.29-3.64-17.05-5.16-26.06-4.5-13.36.98-21.83 8.01-25.41 20.77-1.43 5.12-1.8 10.45-2.73 15.67-.24 1.36.58 1.31 1.31 1.43 2.31.37 4.63.67 6.94 1.02 19.48 2.88 38.96 5.74 58.43 8.67 1.22.18 1.86.11 2.01-1.24.6-5.45 1.94-10.81 1.88-15.87ZM356.79 562.39c2.94 1.68 5.82 3.14 8.51 4.9 13.76 9.01 17.45 25.42 8.69 38.27-2.5 3.66-5.75 6.51-9.73 8.34-13.16 6.09-26.91 7.32-40.75 3.25-16.03-4.71-22.35-24.16-12.76-37.91 3.14-4.51 7.36-7.86 11.88-10.88.66-.44 1.31-.89 2.22-1.51-3.38-1.88-6.51-3.71-9.42-5.89-13.25-9.93-13.3-34.45 4.95-43 11.38-5.34 23.45-6.21 35.56-2.83 16.61 4.63 19.63 23.31 13.33 34.3-3.07 5.35-7.4 9.4-12.46 12.96Zm-15.89 41.42c1.72-.08 2.89-.09 4.05-.18 7.6-.64 12.24-4.47 12.97-10.92.51-4.56-.99-8.51-4.39-11.64-3.56-3.28-7.91-5.23-12.28-7.12-.61-.26-1.14-.35-1.75.06-4.28 2.85-8.51 5.74-11.02 10.45-4.47 8.4-.34 17.47 8.69 19.05 1.41.25 2.86.24 3.74.3Zm-.95-75.21c-2.09.12-4.32.31-6.47 1.01-4.78 1.55-7.61 5.32-7.5 10.3.09 3.82 1.45 7.14 4.39 9.76 3 2.66 6.6 4.27 10.1 6.08.81.42 1.32.22 1.93-.23 3.36-2.45 6.5-5.11 8.48-8.88 4.69-8.93-.72-17.98-10.93-18.05ZM253.4 501.44c3.53.25 6.8 1.54 10.08 2.75 3.71 1.36 7.43 2.7 10.83 4.76 3.31 2.01 3.56 2.77 2.22 6.31-6.61 17.37-13.17 34.75-19.9 52.08-1.03 2.64-.64 3.86 2.12 4.41 1.13.23 2.17.91 3.3 1.16 2.94.65 3.68 2.61 3.16 5.23-.64 3.28-1.79 6.39-3.67 9.2-1.24 1.85-2.68 2.26-4.85 1.42-2.29-.89-4.98-3.11-6.87-2.08-1.64.9-2.01 4.18-2.88 6.43-1.14 2.93-2.31 5.85-3.32 8.82-.81 2.39-2.24 3.25-4.73 2.67-4.05-.94-7.94-2.33-11.61-4.25-3.27-1.72-3.5-2.57-2.19-6.04 1.67-4.46 3.26-8.95 5.08-13.34.71-1.71.27-2.24-1.32-2.84-11.18-4.18-22.32-8.45-33.47-12.71-3.81-1.46-4.31-2.32-3.27-6.32 1.89-7.27 5.16-13.51 11.3-18.43 15.38-12.32 30.43-25.07 45.57-37.68 1.33-1.11 2.66-1.8 4.42-1.53Zm-.62 19c-1.04-.02-1.52.86-2.19 1.4-8.58 7-17.14 14.03-25.7 21.06-4.34 3.57-8.67 7.15-13.23 10.91 7.9 3 15.47 5.82 22.98 8.79 1.77.7 2.37.38 3.02-1.4 4.07-11.04 8.32-22.01 12.45-33.02.96-2.56 2.34-5 2.61-7.8h.35l-.12-.3c-.06.12-.12.25-.18.37ZM581.43 438.15c1.72-5.7 3.33-11 4.92-16.3 2.04-6.79 4.07-13.59 6.13-20.38.99-3.27 2.14-4.03 5.55-3.55 2.86.4 5.62 1.24 8.23 2.48 3 1.42 3.42 2.35 2.47 5.51-4.1 13.68-8.21 27.35-12.32 41.03-1.37 4.56-2.7 9.13-4.11 13.67-1.38 4.42-3.16 5.27-7.68 4.43-6.83-1.27-11.59-4.83-15.02-11.01-5.62-10.13-11.14-20.36-17.73-29.91-4.43-6.42-9.56-12.17-17.05-15.26-9.07-3.75-16.13-.27-18.63 9.17-1.57 5.95-.79 11.77.68 17.58.22.87.58 1.71.76 2.58.44 2.13-.54 3.46-2.69 3.27-4.23-.38-8.35-1.36-12.08-3.46-2.93-1.65-3.41-4.78-3.88-7.68-1.94-12.08-.52-23.71 5.45-34.51 6.93-12.55 18.36-16.79 32.06-12.45 9.62 3.05 16.68 9.26 22.61 17.13 7.89 10.46 13.56 22.23 19.99 33.55.7 1.24 1.42 2.47 2.36 4.12ZM603.74 326.51c.36-8.39.7-16.27 1.04-24.14.21-4.85.48-9.7.63-14.55.08-2.75 1.44-4.02 4.11-4.34 2.98-.35 5.94-.2 8.86.29 3.47.58 4.02 1.37 3.87 4.89-.54 12.49-1.11 24.97-1.66 37.46-.29 6.56-.47 13.12-.86 19.68-.27 4.53-1.71 5.69-6.26 5.97-6.9.44-12.46-1.74-17.28-6.97-7.37-8.01-15.12-15.69-23.01-23.2-5.69-5.42-12.07-10-20.01-11.7-2.19-.47-4.41-.8-6.67-.5-6.46.85-10.42 5.17-10.91 11.7-.52 6.84 1.69 12.92 4.9 18.76.43.79.98 1.52 1.33 2.34.8 1.9.54 3.47-1.8 3.82-4.3.64-8.61.72-12.85-.42-1.84-.5-3.05-1.96-3.87-3.58-6.98-13.93-8.72-28.31-2.7-42.96 4.14-10.08 13.91-15.1 24.73-14.71 13.27.48 23.27 7.12 32.6 15.52 9.05 8.15 16.81 17.54 25.82 26.65ZM378.97 37.32c11.48.15 21.24 2.87 29.9 9.26 3.63 2.68 5.29 5.91 4.59 10.42-.4 2.58-.68 5.18-1.45 7.67-1.19 3.84-3.12 4.3-5.98 1.5-4.89-4.78-10.24-8.74-17.11-10.27-11.11-2.47-20.35.89-26.31 10.57-7.73 12.55-9.98 26.36-6.83 40.73 2.29 10.4 10.59 16.76 21.48 17.94 6.94.75 13.38-.68 19.67-3.4.9-.39 1.81-.79 2.76-1.04 1.89-.49 2.97.3 3.02 2.27.11 4.09-.51 8.08-1.78 11.96-.87 2.66-3.09 3.88-5.51 4.78-7.95 2.94-16.15 3.47-24.47 2.25-11.14-1.64-21.22-5.52-28.91-14.2-5.82-6.57-8.83-14.44-9.64-23.01-1.51-15.93.9-31.26 8.99-45.28 8.49-14.72 21.38-22.12 37.59-22.15ZM236.8 143.67c-12.25.52-23.65 1.08-35.06 1.43-1.95.06-2.56.82-3.14 2.42-3.93 10.8-7.95 21.56-12.12 32.81-2.15-5.78-4.18-11.17-6.18-16.57-2.06-5.56-4.12-11.11-6.1-16.7-.48-1.36-1.12-1.89-2.68-1.94-11.59-.39-23.17-.92-35.43-1.44 1.99-1.58 3.5-2.79 5.02-3.99 7.49-5.91 14.95-11.86 22.5-17.7 1.44-1.11 1.72-2.08 1.21-3.83-3.2-11.03-6.26-22.11-9.48-33.6.94.55 1.58.89 2.18 1.29 8.97 6 17.97 11.97 26.88 18.06 1.6 1.09 2.68.98 4.21-.06 8.78-5.96 17.63-11.83 26.46-17.72.58-.39 1.07-.97 1.89-.98.61.68.1 1.34-.07 1.97-2.92 10.37-5.8 20.76-8.83 31.1-.52 1.79-.05 2.73 1.33 3.8 8.45 6.58 16.84 13.24 25.25 19.88.54.43 1.07.87 2.17 1.78ZM438.39 485.68c5.92 3.37 11.37 7.44 17.08 11.14 3.83 2.49 7.64 5.02 11.36 7.68 1.44 1.03 2.44 1.08 3.95.04 8.51-5.82 17.11-11.5 25.68-17.22.89-.59 1.83-1.09 2.75-1.64.12.12.25.24.37.36-2.99 10.82-5.92 21.65-9.03 32.44-.57 1.97-.23 2.99 1.38 4.24 8.97 6.94 17.84 14.02 27.23 21.43-4.08.22-7.68.45-11.28.6-8.09.33-16.18.66-24.28.89-1.61.04-2.1.89-2.57 2.16-3.79 10.37-7.61 20.74-11.43 31.1-.18.5-.4.98-.78 1.94-2.88-7.76-5.61-15.09-8.33-22.43-1.28-3.45-2.66-6.87-3.79-10.37-.55-1.71-1.34-2.35-3.19-2.41-11.49-.37-22.97-.89-35.09-1.39 4.21-3.33 7.97-6.3 11.73-9.27 5.3-4.18 10.58-8.39 15.94-12.5 1.34-1.03 1.62-2.02 1.15-3.63-2.96-10.27-5.82-20.57-8.74-30.86-.2-.7-.47-1.36-.34-2.1.07-.07.14-.14.21-.2ZM75.14 488.43c9.48-7.47 18.41-14.6 27.47-21.57 1.65-1.27 1.86-2.41 1.33-4.25-2.96-10.27-5.82-20.56-8.73-30.85-.19-.68-.57-1.33-.21-2.3 2.49 1.67 4.92 3.32 7.36 4.95 7.04 4.69 14.12 9.32 21.08 14.12 1.71 1.18 2.85 1.04 4.47-.07 8.69-5.93 17.46-11.75 26.22-17.58.7-.47 1.29-1.22 2.5-1.22-2.27 8.12-4.52 16.13-6.76 24.15-.87 3.11-1.61 6.27-2.66 9.32-.55 1.58-.19 2.39 1.07 3.37 8.03 6.24 16 12.57 23.98 18.87 1.12.89 2.24 1.79 3.72 2.97-5.09.25-9.78.52-14.47.7-6.92.27-13.85.55-20.77.67-1.67.03-2.3.62-2.84 2.12-3.64 10.04-7.38 20.05-11.11 30.06-.3.81-.37 1.76-1.37 2.59-2.67-7.21-5.28-14.28-7.9-21.36-1.34-3.62-2.75-7.22-3.98-10.88-.59-1.74-1.35-2.5-3.4-2.56-11.48-.3-22.94-.82-35-1.28ZM497.85 148.27c9.23 6.09 18.52 12.09 27.65 18.32 2.06 1.41 3.36 1.34 5.36-.03 8.36-5.77 16.86-11.35 25.33-16.97.8-.53 1.49-1.34 2.92-1.38-1.27 4.58-2.51 9.05-3.76 13.52-1.85 6.57-3.67 13.15-5.61 19.7-.48 1.61-.13 2.55 1.2 3.58 9.09 7.07 18.12 14.23 27.67 21.75-5.65.23-10.79.44-15.93.66-6.56.28-13.11.64-19.68.79-1.63.04-2.09.76-2.56 2.06-3.98 10.87-8.02 21.73-12.24 33.11-1.62-4.31-3.1-8.19-4.54-12.09-2.58-6.99-5.18-13.97-7.68-20.99-.52-1.47-1.2-2.05-2.86-2.1-10.97-.36-21.93-.87-32.9-1.32-.6-.02-1.2 0-2.58 0 6.33-5.01 12.06-9.55 17.8-14.09 3.32-2.62 6.59-5.31 9.99-7.83 1.39-1.03 1.61-1.94 1.12-3.6-2.97-10.17-5.8-20.39-8.66-30.59-.19-.69-.31-1.4-.46-2.1l.42-.39Z" class="cls-3"/><path d="M497.43 148.66c-.04-.23-.19-.59-.1-.67.27-.23.42.03.52.27l-.42.39ZM438.17 485.88c-.25-.05-.39-.16-.26-.43.16.08.31.16.47.23-.07.07-.14.13-.21.2ZM499.2 485.69c.1-.24.24-.5.51-.28.08.06-.09.42-.14.64-.13-.12-.25-.24-.37-.36Z" class="cls-4"/><path d="m252.78 520.44.18-.37.12.3h-.35l.05.06Z" class="cls-2"/><path d="M326.67 167.16c85.5-.53 159.07 68.98 158.93 159.23-.14 87.93-71.14 158.81-159.29 158.67-90.04-.14-160.74-74.44-158.68-162.8 2-85.8 72.74-155.59 159.04-155.1Z" class="cls-3"/><path d="M352.73 318.4c8.46-.68 16.61-1.33 24.77-2 14.53-1.19 29.06-2.4 43.58-3.6.72-.06 1.44-.2 2.15-.16 2.13.11 2.82-.68 2.81-2.95-.05-8.2 4.32-13.74 11.56-15.45 4.28-1.01 7.61.46 10.43 3.48 3.09 3.31 4.89 7.3 5.76 11.71.8 4.06-.98 7.02-4.23 9.19-5.84 3.91-5.98 4.24-.1 8.72 4.64 3.53 7.46 7.98 7.16 14.03-.13 2.64-1.13 4.88-3 6.73-5.38 5.34-15.1 4.62-19.6-1.43-1.85-2.49-3.06-5.3-3.75-8.29-.32-1.37-.78-1.64-2.17-1.52-23.21 2.05-46.42 4.07-69.64 6.02-20.53 1.73-41.07 3.32-61.59 5.07-20.35 1.74-40.69 3.58-61.04 5.41-4.86.44-4.85.5-4.85 5.6 0 7.86-3.59 13.37-10.09 15.08-6.45 1.69-11.81-.54-15.83-5.55-6.15-7.68-5.92-12.99-.79-19.72 4.03-5.28 3.99-5.32-1.18-9.31-6.58-5.07-8.37-12.5-4.69-18.47 4.06-6.59 17.61-9.86 24.05-1.21 2.35 3.16 3.89 6.65 4.88 10.42.25.96.29 1.86 1.8 1.72 7.97-.75 15.96-1.38 23.93-2.07.32-.03.62-.24.97-.39-28.53-24.22-29.35-61.38-17.05-84.62 13.18-24.88 39.33-39.58 67.97-36.73 30.59 3.04 55.57 26.05 61.01 57.74 1.35-3 2.54-5.61 3.71-8.24 3.49-7.79 6.92-15.6 10.49-23.35.82-1.77.9-2.83-.78-4.26-3.72-3.18-6.64-7-8.48-11.67-3.47-8.84 6.12-20.03 15.32-19.36 3.38.25 5.94 1.79 7.74 4.7 2.02 3.26 3.06 6.88 4.13 10.5.28.95.52 1.91.8 2.86.66 2.29 1.94 2.96 4.24 1.92 3.02-1.36 5.91-3.02 9.23-3.68 2-.4 3.76-.08 5.4 1.01 3.84 2.56 6.66 6 8.51 10.23 3.81 8.72-3.56 17.79-12.31 18.03-3.54.1-7.07-.48-10.26-1.95-2.36-1.08-3.14-.29-4.15 1.7-6.89 13.64-13.88 27.22-20.84 40.81-4.83 9.43-9.71 18.84-14.47 28.31-.71 1.42-1.55 1.97-3.08 2-1.79.03-3.58.38-5.38.42-1.57.03-2.49.69-3.06 2.52Zm-33.82-75.03c0-6.88-5.46-12.34-12.3-12.29-6.61.05-12.15 5.6-12.21 12.24-.05 6.7 5.58 12.23 12.42 12.21 6.78-.02 12.08-5.36 12.08-12.16Zm-50.75 14.09c-6.86.03-12.29 5.53-12.21 12.39.08 6.55 5.79 12.15 12.35 12.12 6.58-.03 12.16-5.64 12.19-12.26.03-6.87-5.4-12.27-12.33-12.24Zm33.75 65.87c2.38-.12 4.37-.07 6.33-.34 32.52-4.44 50.33-40.1 34.25-68.58-1.06-1.87-2.33-3.52.69-4.73.75-.3 1-1.2.69-1.84-.27-.56-1.1-.66-1.67-.27-2.66 1.85-5.3 3.73-7.9 5.66-.64.48-.68 1.28-.14 1.91.58.68 1.15.08 1.67-.2.39-.21.78-.47 1.09-.78 1.39-1.39 2.24-1.05 3.18.63 4.75 8.49 7.05 17.51 5.7 27.21-2.59 18.62-12.88 31.44-30.72 36.96-17.86 5.53-33.51.65-46.25-13.18-1.45-1.57-2.42-2.89.28-4.1.94-.42 1.52-1.4.94-2.15-.61-.78-1.62-.25-2.4.32-1.89 1.38-3.79 2.74-5.71 4.08-.97.67-2.39 1.53-1.67 2.64.93 1.44 2.06-.03 2.87-.68 1.28-1.03 2.01-1 3.14.38 9.32 11.33 21.41 16.89 35.65 17.06Z" class="cls-2"/><path d="M345.17 347.04c-1.74 3.44-3.28 6.54-4.86 9.62-10.79 21-21.57 42.01-32.42 62.98-.76 1.46-.32 1.99.83 2.71 3.06 1.91 5.84 4.19 8.53 6.59 3.99 3.54 5.8 7.72 4.03 13.01-1.83 5.45-5.11 9.55-10.97 10.83-9.23 2-15.42-2.44-16.98-11.78-1.07-6.44.08-6.4-7.1-4.96-3.17.64-6.34 1.2-9.62 1.16-7.9-.09-12.8-4.76-13.56-12.72-.98-10.27 6.47-14.85 13.86-15.36 3.35-.23 6.69.12 9.86 1.16 1.65.54 2.15-.03 2.78-1.35 9.15-19.2 18.39-38.36 27.49-57.59.84-1.78 1.78-2.59 3.73-2.7 7.97-.45 15.92-1.03 24.39-1.59Z" class="cls-2"/><path d="M318.91 243.37c0 6.8-5.31 12.15-12.08 12.16-6.85.02-12.48-5.52-12.42-12.21.05-6.64 5.59-12.19 12.21-12.24 6.84-.05 12.3 5.42 12.3 12.29ZM268.16 257.46c6.93-.03 12.36 5.37 12.33 12.24-.03 6.62-5.61 12.23-12.19 12.26-6.56.03-12.27-5.57-12.35-12.12-.08-6.85 5.35-12.36 12.21-12.39ZM301.91 323.33c-14.24-.18-26.33-5.74-35.65-17.06-1.13-1.38-1.87-1.41-3.14-.38-.81.65-1.94 2.13-2.87.68-.72-1.11.7-1.97 1.67-2.64 1.92-1.33 3.82-2.7 5.71-4.08.78-.57 1.79-1.11 2.4-.32.59.76 0 1.73-.94 2.15-2.7 1.21-1.72 2.54-.28 4.1 12.75 13.82 28.39 18.7 46.25 13.18 17.85-5.52 28.13-18.34 30.72-36.96 1.35-9.7-.95-18.72-5.7-27.21-.94-1.68-1.78-2.02-3.18-.63-.31.31-.7.57-1.09.78-.52.28-1.08.88-1.67.2-.54-.63-.5-1.43.14-1.91 2.6-1.93 5.24-3.81 7.9-5.66.57-.4 1.4-.29 1.67.27.31.64.06 1.54-.69 1.84-3.01 1.22-1.74 2.86-.69 4.73 16.09 28.48-1.72 64.14-34.25 68.58-1.96.27-3.95.22-6.33.34Z" class="cls-3"/></svg>